<svg width="80" height="49" viewBox="0 0 80 49" fill="none" xmlns="http://www.w3.org/2000/svg">
<path d="M10.542 3.94141L3.00022 33.1306" stroke="#514545" stroke-width="4" stroke-linecap="round"/>
<path d="M35.6812 3.94141L35.8052 33.1303" stroke="#3A4E41" stroke-width="4" stroke-linecap="round"/>
<path d="M70.876 11.2393L71 33.1308" stroke="#8D8D7F" stroke-width="4" stroke-linecap="round"/>
<path d="M70.876 2.72559L70.8794 3.33368" stroke="#8D8D7F" stroke-width="4" stroke-linecap="round"/>
<path d="M45.7368 3.94141L35.6806 3.94155" stroke="#3A4E41" stroke-width="4" stroke-linecap="round"/>
<path d="M46.9937 20.9688L36.9374 20.9689" stroke="#3A4E41" stroke-width="4" stroke-linecap="round"/>
<path d="M48.6802 26.665L45.7366 20.9691" stroke="#3A4E41" stroke-width="4" stroke-linecap="round"/>
<path d="M52.6108 32.9883L52.0212 31.9142" stroke="#3A4E41" stroke-width="4" stroke-linecap="round"/>
<path d="M10.542 3.94141L18.0838 24.6171" stroke="#514545" stroke-width="4" stroke-linecap="round"/>
<path d="M21.8545 30.6982L22.4166 31.7861" stroke="#514545" stroke-width="4" stroke-linecap="round"/>
<path d="M5.51416 24.6172H16.8268" stroke="#514545" stroke-width="4" stroke-linecap="round"/>
<path d="M44.7392 2.00894C47.7393 2.04822 50.91 2.79116 53.0023 4.89906C55.0945 7.00696 56.2468 9.84382 56.2057 12.7856C56.1645 15.7273 54.9333 18.5329 52.7829 20.5853C50.6325 22.6376 47 22.5486 44 22.5093L44.0001 19.5093C45.6638 19.5311 48.1981 18.9547 49.3906 17.8166C50.5832 16.6784 51.1444 14.351 51.1672 12.7196C51.19 11.0882 50.551 9.51493 49.3906 8.34595C48.2303 7.17696 45.6638 6.03106 44.0001 6.00928L44.7392 2.00894Z" fill="#3A4E41"/>
<path d="M15.695 47.084C15.2003 47.084 14.7757 46.979 14.421 46.769C14.0663 46.5543 13.7933 46.258 13.602 45.88C13.4107 45.4973 13.315 45.0563 13.315 44.557C13.315 44.0577 13.4107 43.6167 13.602 43.234C13.7933 42.8513 14.0663 42.5527 14.421 42.338C14.7757 42.1233 15.2003 42.016 15.695 42.016C16.283 42.016 16.7637 42.163 17.137 42.457C17.515 42.7463 17.7507 43.1547 17.844 43.682H16.857C16.7963 43.416 16.6657 43.2083 16.465 43.059C16.269 42.905 16.0077 42.828 15.681 42.828C15.2283 42.828 14.8737 42.982 14.617 43.29C14.3603 43.598 14.232 44.0203 14.232 44.557C14.232 45.0937 14.3603 45.516 14.617 45.824C14.8737 46.1273 15.2283 46.279 15.681 46.279C16.0077 46.279 16.269 46.209 16.465 46.069C16.6657 45.9243 16.7963 45.726 16.857 45.474H17.844C17.7507 45.978 17.515 46.3723 17.137 46.657C16.7637 46.9417 16.283 47.084 15.695 47.084ZM20.2821 47.084C19.9461 47.084 19.6428 47.007 19.3721 46.853C19.1061 46.699 18.8938 46.4867 18.7351 46.216C18.5811 45.9407 18.5041 45.6233 18.5041 45.264C18.5041 44.9047 18.5835 44.5897 18.7421 44.319C18.9008 44.0437 19.1131 43.829 19.3791 43.675C19.6498 43.521 19.9531 43.444 20.2891 43.444C20.6205 43.444 20.9191 43.521 21.1851 43.675C21.4558 43.829 21.6681 44.0437 21.8221 44.319C21.9808 44.5897 22.0601 44.9047 22.0601 45.264C22.0601 45.6233 21.9808 45.9407 21.8221 46.216C21.6681 46.4867 21.4558 46.699 21.1851 46.853C20.9145 47.007 20.6135 47.084 20.2821 47.084ZM20.2821 46.307C20.5155 46.307 20.7185 46.2207 20.8911 46.048C21.0638 45.8707 21.1501 45.6093 21.1501 45.264C21.1501 44.9187 21.0638 44.6597 20.8911 44.487C20.7185 44.3097 20.5178 44.221 20.2891 44.221C20.0511 44.221 19.8458 44.3097 19.6731 44.487C19.5051 44.6597 19.4211 44.9187 19.4211 45.264C19.4211 45.6093 19.5051 45.8707 19.6731 46.048C19.8458 46.2207 20.0488 46.307 20.2821 46.307ZM24.4573 47.084C24.1306 47.084 23.8389 47.0047 23.5823 46.846C23.3256 46.6873 23.1226 46.4703 22.9733 46.195C22.8239 45.9197 22.7493 45.607 22.7493 45.257C22.7493 44.907 22.8239 44.5967 22.9733 44.326C23.1226 44.0507 23.3256 43.836 23.5823 43.682C23.8389 43.5233 24.1306 43.444 24.4573 43.444C24.7186 43.444 24.9473 43.493 25.1433 43.591C25.3393 43.689 25.4979 43.8267 25.6193 44.004V41.96H26.5153V47H25.7173L25.6193 46.503C25.5073 46.657 25.3579 46.7923 25.1713 46.909C24.9893 47.0257 24.7513 47.084 24.4573 47.084ZM24.6463 46.3C24.9356 46.3 25.1713 46.2043 25.3533 46.013C25.5399 45.817 25.6333 45.5673 25.6333 45.264C25.6333 44.9607 25.5399 44.7133 25.3533 44.522C25.1713 44.326 24.9356 44.228 24.6463 44.228C24.3616 44.228 24.1259 44.3237 23.9393 44.515C23.7526 44.7063 23.6593 44.9537 23.6593 45.257C23.6593 45.5603 23.7526 45.81 23.9393 46.006C24.1259 46.202 24.3616 46.3 24.6463 46.3ZM29.1147 47.084C28.7647 47.084 28.4543 47.0093 28.1837 46.86C27.913 46.7107 27.7007 46.5007 27.5467 46.23C27.3927 45.9593 27.3157 45.6467 27.3157 45.292C27.3157 44.9327 27.3903 44.613 27.5397 44.333C27.6937 44.053 27.9037 43.836 28.1697 43.682C28.4403 43.5233 28.7577 43.444 29.1217 43.444C29.4623 43.444 29.7633 43.5187 30.0247 43.668C30.286 43.8173 30.489 44.0227 30.6337 44.284C30.783 44.5407 30.8577 44.8277 30.8577 45.145C30.8577 45.1963 30.8553 45.25 30.8507 45.306C30.8507 45.362 30.8483 45.4203 30.8437 45.481H28.2047C28.2233 45.7517 28.3167 45.964 28.4847 46.118C28.6573 46.272 28.865 46.349 29.1077 46.349C29.2897 46.349 29.4413 46.3093 29.5627 46.23C29.6887 46.146 29.782 46.0387 29.8427 45.908H30.7527C30.6873 46.1273 30.5777 46.328 30.4237 46.51C30.2743 46.6873 30.0877 46.8273 29.8637 46.93C29.6443 47.0327 29.3947 47.084 29.1147 47.084ZM29.1217 44.172C28.9023 44.172 28.7087 44.235 28.5407 44.361C28.3727 44.4823 28.2653 44.669 28.2187 44.921H29.9477C29.9337 44.6923 29.8497 44.5103 29.6957 44.375C29.5417 44.2397 29.3503 44.172 29.1217 44.172ZM33.3002 47V42.1H34.9732C35.5472 42.1 36.0186 42.2027 36.3872 42.408C36.7606 42.6087 37.0359 42.8933 37.2132 43.262C37.3952 43.626 37.4862 44.0553 37.4862 44.55C37.4862 45.0447 37.3952 45.4763 37.2132 45.845C37.0359 46.209 36.7606 46.4937 36.3872 46.699C36.0186 46.8997 35.5472 47 34.9732 47H33.3002ZM34.1962 46.23H34.9312C35.3419 46.23 35.6662 46.1647 35.9042 46.034C36.1422 45.8987 36.3126 45.7073 36.4152 45.46C36.5179 45.208 36.5692 44.9047 36.5692 44.55C36.5692 44.2 36.5179 43.899 36.4152 43.647C36.3126 43.395 36.1422 43.2013 35.9042 43.066C35.6662 42.9307 35.3419 42.863 34.9312 42.863H34.1962V46.23ZM39.9428 47.084C39.5928 47.084 39.2824 47.0093 39.0118 46.86C38.7411 46.7107 38.5288 46.5007 38.3748 46.23C38.2208 45.9593 38.1438 45.6467 38.1438 45.292C38.1438 44.9327 38.2184 44.613 38.3678 44.333C38.5218 44.053 38.7318 43.836 38.9978 43.682C39.2684 43.5233 39.5858 43.444 39.9498 43.444C40.2904 43.444 40.5914 43.5187 40.8528 43.668C41.1141 43.8173 41.3171 44.0227 41.4618 44.284C41.6111 44.5407 41.6858 44.8277 41.6858 45.145C41.6858 45.1963 41.6834 45.25 41.6788 45.306C41.6788 45.362 41.6764 45.4203 41.6718 45.481H39.0328C39.0514 45.7517 39.1448 45.964 39.3128 46.118C39.4854 46.272 39.6931 46.349 39.9358 46.349C40.1178 46.349 40.2694 46.3093 40.3908 46.23C40.5168 46.146 40.6101 46.0387 40.6708 45.908H41.5808C41.5154 46.1273 41.4058 46.328 41.2518 46.51C41.1024 46.6873 40.9158 46.8273 40.6918 46.93C40.4724 47.0327 40.2228 47.084 39.9428 47.084ZM39.9498 44.172C39.7304 44.172 39.5368 44.235 39.3688 44.361C39.2008 44.4823 39.0934 44.669 39.0468 44.921H40.7758C40.7618 44.6923 40.6778 44.5103 40.5238 44.375C40.3698 44.2397 40.1784 44.172 39.9498 44.172ZM43.2407 47L41.9667 43.528H42.9047L43.7867 46.153L44.6687 43.528H45.6067L44.3257 47H43.2407ZM47.6879 47.084C47.3379 47.084 47.0276 47.0093 46.7569 46.86C46.4862 46.7107 46.2739 46.5007 46.1199 46.23C45.9659 45.9593 45.8889 45.6467 45.8889 45.292C45.8889 44.9327 45.9636 44.613 46.1129 44.333C46.2669 44.053 46.4769 43.836 46.7429 43.682C47.0136 43.5233 47.3309 43.444 47.6949 43.444C48.0356 43.444 48.3366 43.5187 48.5979 43.668C48.8592 43.8173 49.0622 44.0227 49.2069 44.284C49.3562 44.5407 49.4309 44.8277 49.4309 45.145C49.4309 45.1963 49.4286 45.25 49.4239 45.306C49.4239 45.362 49.4216 45.4203 49.4169 45.481H46.7779C46.7966 45.7517 46.8899 45.964 47.0579 46.118C47.2306 46.272 47.4382 46.349 47.6809 46.349C47.8629 46.349 48.0146 46.3093 48.1359 46.23C48.2619 46.146 48.3552 46.0387 48.4159 45.908H49.3259C49.2606 46.1273 49.1509 46.328 48.9969 46.51C48.8476 46.6873 48.6609 46.8273 48.4369 46.93C48.2176 47.0327 47.9679 47.084 47.6879 47.084ZM47.6949 44.172C47.4756 44.172 47.2819 44.235 47.1139 44.361C46.9459 44.4823 46.8386 44.669 46.7919 44.921H48.5209C48.5069 44.6923 48.4229 44.5103 48.2689 44.375C48.1149 44.2397 47.9236 44.172 47.6949 44.172ZM50.1845 47V41.96H51.0805V47H50.1845ZM53.662 47.084C53.326 47.084 53.0227 47.007 52.752 46.853C52.486 46.699 52.2737 46.4867 52.115 46.216C51.961 45.9407 51.884 45.6233 51.884 45.264C51.884 44.9047 51.9633 44.5897 52.122 44.319C52.2807 44.0437 52.493 43.829 52.759 43.675C53.0297 43.521 53.333 43.444 53.669 43.444C54.0003 43.444 54.299 43.521 54.565 43.675C54.8357 43.829 55.048 44.0437 55.202 44.319C55.3607 44.5897 55.44 44.9047 55.44 45.264C55.44 45.6233 55.3607 45.9407 55.202 46.216C55.048 46.4867 54.8357 46.699 54.565 46.853C54.2943 47.007 53.9933 47.084 53.662 47.084ZM53.662 46.307C53.8953 46.307 54.0983 46.2207 54.271 46.048C54.4437 45.8707 54.53 45.6093 54.53 45.264C54.53 44.9187 54.4437 44.6597 54.271 44.487C54.0983 44.3097 53.8977 44.221 53.669 44.221C53.431 44.221 53.2257 44.3097 53.053 44.487C52.885 44.6597 52.801 44.9187 52.801 45.264C52.801 45.6093 52.885 45.8707 53.053 46.048C53.2257 46.2207 53.4287 46.307 53.662 46.307ZM56.2411 48.54V43.528H57.0391L57.1371 44.025C57.2491 43.871 57.3961 43.7357 57.5781 43.619C57.7648 43.5023 58.0051 43.444 58.2991 43.444C58.6258 43.444 58.9175 43.5233 59.1741 43.682C59.4308 43.8407 59.6338 44.0577 59.7831 44.333C59.9325 44.6083 60.0071 44.921 60.0071 45.271C60.0071 45.621 59.9325 45.9337 59.7831 46.209C59.6338 46.4797 59.4308 46.6943 59.1741 46.853C58.9175 47.007 58.6258 47.084 58.2991 47.084C58.0378 47.084 57.8091 47.035 57.6131 46.937C57.4171 46.839 57.2585 46.7013 57.1371 46.524V48.54H56.2411ZM58.1101 46.3C58.3948 46.3 58.6305 46.2043 58.8171 46.013C59.0038 45.8217 59.0971 45.5743 59.0971 45.271C59.0971 44.9677 59.0038 44.718 58.8171 44.522C58.6305 44.326 58.3948 44.228 58.1101 44.228C57.8208 44.228 57.5828 44.326 57.3961 44.522C57.2141 44.7133 57.1231 44.9607 57.1231 45.264C57.1231 45.5673 57.2141 45.817 57.3961 46.013C57.5828 46.2043 57.8208 46.3 58.1101 46.3ZM62.4945 47.084C62.1445 47.084 61.8342 47.0093 61.5635 46.86C61.2929 46.7107 61.0805 46.5007 60.9265 46.23C60.7725 45.9593 60.6955 45.6467 60.6955 45.292C60.6955 44.9327 60.7702 44.613 60.9195 44.333C61.0735 44.053 61.2835 43.836 61.5495 43.682C61.8202 43.5233 62.1375 43.444 62.5015 43.444C62.8422 43.444 63.1432 43.5187 63.4045 43.668C63.6659 43.8173 63.8689 44.0227 64.0135 44.284C64.1629 44.5407 64.2375 44.8277 64.2375 45.145C64.2375 45.1963 64.2352 45.25 64.2305 45.306C64.2305 45.362 64.2282 45.4203 64.2235 45.481H61.5845C61.6032 45.7517 61.6965 45.964 61.8645 46.118C62.0372 46.272 62.2449 46.349 62.4875 46.349C62.6695 46.349 62.8212 46.3093 62.9425 46.23C63.0685 46.146 63.1619 46.0387 63.2225 45.908H64.1325C64.0672 46.1273 63.9575 46.328 63.8035 46.51C63.6542 46.6873 63.4675 46.8273 63.2435 46.93C63.0242 47.0327 62.7745 47.084 62.4945 47.084ZM62.5015 44.172C62.2822 44.172 62.0885 44.235 61.9205 44.361C61.7525 44.4823 61.6452 44.669 61.5985 44.921H63.3275C63.3135 44.6923 63.2295 44.5103 63.0755 44.375C62.9215 44.2397 62.7302 44.172 62.5015 44.172ZM64.9911 47V43.528H65.7891L65.8731 44.179C65.9991 43.955 66.1695 43.7777 66.3841 43.647C66.6035 43.5117 66.8601 43.444 67.1541 43.444V44.389H66.9021C66.7061 44.389 66.5311 44.4193 66.3771 44.48C66.2231 44.5407 66.1018 44.6457 66.0131 44.795C65.9291 44.9443 65.8871 45.152 65.8871 45.418V47H64.9911Z" fill="#1C1A1A"/>
</svg>
