<svg width="34" height="35" viewBox="0 0 34 35" fill="none" xmlns="http://www.w3.org/2000/svg">
<rect y="0.509277" width="34" height="34" rx="17" fill="#C71610"/>
<path d="M26.313 15.6326C26.4552 15.5194 26.6667 15.6253 26.6667 15.8043V23.2757C26.6667 24.2439 25.8828 25.0294 24.9167 25.0294H9.75C8.78385 25.0294 8 24.2439 8 23.2757V15.808C8 15.6253 8.20781 15.523 8.35365 15.6363C9.17031 16.272 10.2531 17.0794 13.9719 19.7866C14.7411 20.3493 16.0391 21.533 17.3333 21.5257C18.6349 21.5366 19.9583 20.3273 20.6984 19.7866C24.4172 17.0794 25.4964 16.2683 26.313 15.6326ZM17.3333 20.3529C18.1792 20.3675 19.3969 19.2861 20.0094 18.8404C24.8474 15.3221 25.2156 15.0152 26.3312 14.1383C26.5427 13.9739 26.6667 13.7182 26.6667 13.4478V12.7537C26.6667 11.7855 25.8828 11 24.9167 11H9.75C8.78385 11 8 11.7855 8 12.7537V13.4478C8 13.7182 8.12396 13.9703 8.33542 14.1383C9.45104 15.0115 9.81927 15.3221 14.6573 18.8404C15.2698 19.2861 16.4875 20.3675 17.3333 20.3529Z" fill="white"/>
</svg>
