<svg width="153" height="35" viewBox="0 0 153 35" fill="none" xmlns="http://www.w3.org/2000/svg">
<path d="M40.5045 12.1927C41.5445 12.1927 42.4325 12.4087 43.1685 12.8407C43.9045 13.2567 44.4645 13.8327 44.8485 14.5687C45.2485 15.2887 45.4485 16.1127 45.4485 17.0407C45.4485 17.2167 45.4405 17.4007 45.4245 17.5927C45.4085 17.7687 45.3765 17.9287 45.3285 18.0727H38.1765C38.1925 19.8007 38.4965 21.0487 39.0885 21.8167C39.6965 22.5687 40.5925 22.9447 41.7765 22.9447C42.5765 22.9447 43.2245 22.8167 43.7205 22.5607C44.2165 22.3047 44.6805 21.9287 45.1125 21.4327L45.3525 21.6487C44.8565 22.5287 44.1925 23.2167 43.3605 23.7127C42.5445 24.2087 41.5605 24.4567 40.4085 24.4567C39.2725 24.4567 38.2645 24.2167 37.3845 23.7367C36.5045 23.2407 35.8165 22.5367 35.3205 21.6247C34.8245 20.7127 34.5765 19.6247 34.5765 18.3607C34.5765 17.0487 34.8645 15.9367 35.4405 15.0247C36.0165 14.0967 36.7525 13.3927 37.6485 12.9127C38.5605 12.4327 39.5125 12.1927 40.5045 12.1927ZM40.4325 12.6727C39.9685 12.6727 39.5685 12.8167 39.2325 13.1047C38.9125 13.3767 38.6565 13.8727 38.4645 14.5927C38.2885 15.2967 38.1925 16.2967 38.1765 17.5927H42.2805C42.4405 15.8487 42.3765 14.5927 42.0885 13.8247C41.8005 13.0567 41.2485 12.6727 40.4325 12.6727ZM52.6468 24.1687L48.3988 13.9687C48.1748 13.4247 47.7908 13.0647 47.2468 12.8887L46.9108 12.7927V12.5527H53.1268V12.7927L52.6948 12.8887C52.0708 13.0487 51.8788 13.4647 52.1188 14.1367L54.6388 20.8327L56.9908 14.1847C57.1188 13.8647 57.1508 13.6007 57.0868 13.3927C57.0228 13.1847 56.8308 13.0327 56.5108 12.9367L55.9108 12.7927V12.5527H59.3908V12.7927L58.6948 12.9607C58.3908 13.0407 58.1508 13.1607 57.9748 13.3207C57.8148 13.4807 57.6788 13.7207 57.5668 14.0407L54.0388 24.1687H52.6468ZM66.1086 12.1927C67.1486 12.1927 68.0366 12.4087 68.7726 12.8407C69.5086 13.2567 70.0686 13.8327 70.4526 14.5687C70.8526 15.2887 71.0526 16.1127 71.0526 17.0407C71.0526 17.2167 71.0446 17.4007 71.0286 17.5927C71.0126 17.7687 70.9806 17.9287 70.9326 18.0727H63.7806C63.7966 19.8007 64.1006 21.0487 64.6926 21.8167C65.3006 22.5687 66.1966 22.9447 67.3806 22.9447C68.1806 22.9447 68.8286 22.8167 69.3246 22.5607C69.8206 22.3047 70.2846 21.9287 70.7166 21.4327L70.9566 21.6487C70.4606 22.5287 69.7966 23.2167 68.9646 23.7127C68.1486 24.2087 67.1646 24.4567 66.0126 24.4567C64.8766 24.4567 63.8686 24.2167 62.9886 23.7367C62.1086 23.2407 61.4206 22.5367 60.9246 21.6247C60.4286 20.7127 60.1806 19.6247 60.1806 18.3607C60.1806 17.0487 60.4686 15.9367 61.0446 15.0247C61.6206 14.0967 62.3566 13.3927 63.2526 12.9127C64.1646 12.4327 65.1166 12.1927 66.1086 12.1927ZM66.0366 12.6727C65.5726 12.6727 65.1726 12.8167 64.8366 13.1047C64.5166 13.3767 64.2606 13.8727 64.0686 14.5927C63.8926 15.2967 63.7966 16.2967 63.7806 17.5927H67.8846C68.0446 15.8487 67.9806 14.5927 67.6926 13.8247C67.4046 13.0567 66.8526 12.6727 66.0366 12.6727ZM72.9686 24.0967V23.8567L73.3046 23.7607C73.8646 23.6007 74.1446 23.2087 74.1446 22.5847V15.0727C74.1446 14.7207 74.0886 14.4647 73.9766 14.3047C73.8646 14.1287 73.6486 14.0087 73.3286 13.9447L72.9686 13.8487V13.6087L77.0726 12.2167L77.3126 12.4567L77.5046 13.8967C78.0646 13.4007 78.6966 12.9927 79.4006 12.6727C80.1046 12.3527 80.8006 12.1927 81.4886 12.1927C82.5446 12.1927 83.3526 12.4807 83.9126 13.0567C84.4886 13.6327 84.7766 14.5127 84.7766 15.6967V22.6087C84.7766 23.2327 85.0806 23.6247 85.6886 23.7847L85.9046 23.8567V24.0967H80.2406V23.8567L80.5526 23.7607C81.1126 23.5847 81.3926 23.1927 81.3926 22.5847V14.9287C81.3926 13.9047 80.8806 13.3927 79.8566 13.3927C79.1526 13.3927 78.3846 13.7447 77.5526 14.4487V22.6087C77.5526 23.2327 77.8326 23.6247 78.3926 23.7847L78.6086 23.8567V24.0967H72.9686ZM92.0064 24.4567C90.9824 24.4567 90.1824 24.2007 89.6064 23.6887C89.0464 23.1767 88.7664 22.3607 88.7664 21.2407V13.0327H87.1104V12.7927L87.6864 12.6967C88.1824 12.5847 88.6064 12.4247 88.9584 12.2167C89.3264 12.0087 89.6864 11.7287 90.0384 11.3767L92.0064 9.19268H92.2464L92.1744 12.5527H94.8624V13.0327H92.1504V21.6727C92.1504 22.2327 92.2704 22.6567 92.5104 22.9447C92.7664 23.2327 93.0864 23.3767 93.4704 23.3767C93.8064 23.3767 94.1024 23.2967 94.3584 23.1367C94.6144 22.9607 94.8704 22.7287 95.1264 22.4407L95.3664 22.6807C95.0464 23.2247 94.6064 23.6567 94.0464 23.9767C93.4864 24.2967 92.8064 24.4567 92.0064 24.4567ZM96.6977 29.6167V29.3767L96.9857 29.2807C97.5777 29.1207 97.8737 28.7367 97.8737 28.1287V15.0727C97.8737 14.7207 97.8097 14.4567 97.6817 14.2807C97.5697 14.1047 97.3537 13.9847 97.0337 13.9207L96.6977 13.8487V13.6087L100.778 12.2167L101.018 12.4567L101.234 13.2007C101.762 12.8807 102.346 12.6327 102.986 12.4567C103.642 12.2807 104.314 12.1927 105.002 12.1927C106.378 12.1927 107.466 12.7207 108.266 13.7767C109.082 14.8167 109.49 16.3127 109.49 18.2647C109.49 20.1847 109.042 21.6967 108.146 22.8007C107.266 23.9047 106.018 24.4567 104.402 24.4567C103.138 24.4567 102.074 24.2727 101.21 23.9047V28.0567C101.21 28.6967 101.498 29.0967 102.074 29.2567L102.53 29.3767V29.6167H96.6977ZM103.25 23.7607C104.05 23.7607 104.682 23.3447 105.146 22.5127C105.626 21.6807 105.866 20.2967 105.866 18.3607C105.866 16.4247 105.642 15.0727 105.194 14.3047C104.746 13.5207 104.098 13.1287 103.25 13.1287C102.658 13.1287 102.002 13.3207 101.282 13.7047V23.3767C101.89 23.6327 102.546 23.7607 103.25 23.7607ZM111.293 24.0967V23.8567L111.653 23.7607C111.973 23.6647 112.189 23.5207 112.301 23.3287C112.429 23.1367 112.493 22.8887 112.493 22.5847V15.0727C112.493 14.7207 112.429 14.4647 112.301 14.3047C112.189 14.1287 111.973 14.0087 111.653 13.9447L111.293 13.8487V13.6087L115.421 12.2167L115.661 12.4567L115.877 14.5207V14.7127C116.101 14.2647 116.389 13.8567 116.741 13.4887C117.109 13.1047 117.509 12.7927 117.941 12.5527C118.389 12.3127 118.829 12.1927 119.261 12.1927C119.869 12.1927 120.333 12.3607 120.653 12.6967C120.973 13.0327 121.133 13.4567 121.133 13.9687C121.133 14.5127 120.973 14.9367 120.653 15.2407C120.349 15.5287 119.981 15.6727 119.549 15.6727C118.877 15.6727 118.285 15.3367 117.773 14.6647L117.725 14.6167C117.565 14.3927 117.381 14.2727 117.173 14.2567C116.965 14.2247 116.773 14.3207 116.597 14.5447C116.437 14.6887 116.301 14.8647 116.189 15.0727C116.093 15.2647 115.997 15.4887 115.901 15.7447V22.4407C115.901 23.0807 116.181 23.4807 116.741 23.6407L117.509 23.8567V24.0967H111.293ZM125.486 10.9447C124.942 10.9447 124.478 10.7767 124.094 10.4407C123.726 10.0887 123.542 9.64868 123.542 9.12068C123.542 8.57668 123.726 8.13668 124.094 7.80068C124.478 7.46468 124.942 7.29668 125.486 7.29668C126.03 7.29668 126.486 7.46468 126.854 7.80068C127.222 8.13668 127.406 8.57668 127.406 9.12068C127.406 9.64868 127.222 10.0887 126.854 10.4407C126.486 10.7767 126.03 10.9447 125.486 10.9447ZM122.654 24.0967V23.8567L122.99 23.7607C123.31 23.6647 123.526 23.5207 123.638 23.3287C123.766 23.1367 123.83 22.8807 123.83 22.5607V15.0487C123.83 14.7127 123.766 14.4647 123.638 14.3047C123.526 14.1287 123.31 14.0087 122.99 13.9447L122.654 13.8727V13.6327L127.046 12.2167L127.286 12.4567L127.214 15.8647V22.5847C127.214 22.9047 127.27 23.1607 127.382 23.3527C127.51 23.5447 127.726 23.6887 128.03 23.7847L128.27 23.8567V24.0967H122.654ZM134.205 24.4567C133.421 24.4567 132.717 24.3607 132.093 24.1687C131.469 23.9927 130.893 23.7687 130.365 23.4967L130.389 20.6407H130.629L131.445 22.0807C131.797 22.7207 132.181 23.2007 132.597 23.5207C133.029 23.8247 133.573 23.9767 134.229 23.9767C134.997 23.9767 135.613 23.8087 136.077 23.4727C136.557 23.1207 136.797 22.6567 136.797 22.0807C136.797 21.5527 136.629 21.1207 136.293 20.7847C135.957 20.4487 135.333 20.1447 134.421 19.8727L133.413 19.5607C132.437 19.2727 131.669 18.8247 131.109 18.2167C130.549 17.6087 130.269 16.8647 130.269 15.9847C130.269 14.9287 130.685 14.0327 131.517 13.2967C132.349 12.5607 133.541 12.1927 135.093 12.1927C135.717 12.1927 136.301 12.2647 136.845 12.4087C137.405 12.5367 137.941 12.7367 138.453 13.0087L138.309 15.6007H138.069L137.229 14.1127C136.925 13.5847 136.621 13.2167 136.317 13.0087C136.029 12.7847 135.589 12.6727 134.997 12.6727C134.453 12.6727 133.941 12.8247 133.461 13.1287C132.981 13.4327 132.741 13.8647 132.741 14.4247C132.741 14.9687 132.941 15.4007 133.341 15.7207C133.757 16.0407 134.365 16.3367 135.165 16.6087L136.245 16.9207C137.397 17.2727 138.221 17.7607 138.717 18.3847C139.213 18.9927 139.461 19.7287 139.461 20.5927C139.461 21.7607 138.997 22.6967 138.069 23.4007C137.157 24.1047 135.869 24.4567 134.205 24.4567ZM147.25 12.1927C148.29 12.1927 149.178 12.4087 149.914 12.8407C150.65 13.2567 151.21 13.8327 151.594 14.5687C151.994 15.2887 152.194 16.1127 152.194 17.0407C152.194 17.2167 152.186 17.4007 152.17 17.5927C152.154 17.7687 152.122 17.9287 152.074 18.0727H144.922C144.938 19.8007 145.242 21.0487 145.834 21.8167C146.442 22.5687 147.338 22.9447 148.522 22.9447C149.322 22.9447 149.97 22.8167 150.466 22.5607C150.962 22.3047 151.426 21.9287 151.858 21.4327L152.098 21.6487C151.602 22.5287 150.938 23.2167 150.106 23.7127C149.29 24.2087 148.306 24.4567 147.154 24.4567C146.018 24.4567 145.01 24.2167 144.13 23.7367C143.25 23.2407 142.562 22.5367 142.066 21.6247C141.57 20.7127 141.322 19.6247 141.322 18.3607C141.322 17.0487 141.61 15.9367 142.186 15.0247C142.762 14.0967 143.498 13.3927 144.394 12.9127C145.306 12.4327 146.258 12.1927 147.25 12.1927ZM147.178 12.6727C146.714 12.6727 146.314 12.8167 145.978 13.1047C145.658 13.3767 145.402 13.8727 145.21 14.5927C145.034 15.2967 144.938 16.2967 144.922 17.5927H149.026C149.186 15.8487 149.122 14.5927 148.834 13.8247C148.546 13.0567 147.994 12.6727 147.178 12.6727Z" fill="#0A0A0A"/>
<path d="M12.8935 26.7583C11.1731 26.728 9.66481 25.6008 9.14837 23.9595L7.83897 19.7978L6.47394 15.878C5.87361 14.1541 6.51654 12.2425 8.03661 11.2317L11.3542 9.02567L14.7089 6.63827C16.1429 5.61775 18.0754 5.65448 19.4696 6.72874L22.9434 9.40539L26.4945 11.9786C27.9197 13.0113 28.5024 14.8543 27.9299 16.5187L26.5907 20.4122L25.4148 24.2189C24.8761 25.963 23.2249 27.1212 21.4016 27.0338L17.2556 26.8351L12.8935 26.7583Z" fill="url(#paint0_linear_21_797)"/>
<defs>
<linearGradient id="paint0_linear_21_797" x1="16.5603" y1="28.9533" x2="18.9097" y2="4.94092" gradientUnits="userSpaceOnUse">
<stop stop-color="#DD81FF"/>
<stop offset="1" stop-color="#1238FF" stop-opacity="0.59"/>
</linearGradient>
</defs>
</svg>
