<svg width="30" height="31" viewBox="0 0 30 31" fill="none" xmlns="http://www.w3.org/2000/svg">
<path d="M10.0343 24.7159C10.0343 24.8402 9.89516 24.9397 9.71976 24.9397C9.52016 24.9583 9.38105 24.8589 9.38105 24.7159C9.38105 24.5916 9.52016 24.4921 9.69556 24.4921C9.87702 24.4735 10.0343 24.5729 10.0343 24.7159ZM8.15323 24.4362C8.11089 24.5605 8.23186 24.7035 8.41331 24.7408C8.57056 24.8029 8.75202 24.7408 8.78831 24.6164C8.8246 24.4921 8.70968 24.3491 8.52823 24.2932C8.37097 24.2497 8.19556 24.3118 8.15323 24.4362ZM10.8266 24.3305C10.6512 24.374 10.5302 24.4921 10.5484 24.6351C10.5665 24.7594 10.7238 24.8402 10.9052 24.7967C11.0806 24.7532 11.2016 24.6351 11.1835 24.5108C11.1653 24.3927 11.002 24.3118 10.8266 24.3305ZM14.8065 0.509277C6.41734 0.509277 0 7.05514 0 15.6773C0 22.5713 4.22177 28.4706 10.252 30.5469C11.0262 30.6899 11.2984 30.1988 11.2984 29.7947C11.2984 29.4093 11.2802 27.2833 11.2802 25.9778C11.2802 25.9778 7.04637 26.9103 6.15726 24.1254C6.15726 24.1254 5.46774 22.3164 4.47581 21.8502C4.47581 21.8502 3.09073 20.8742 4.57258 20.8928C4.57258 20.8928 6.07863 21.0172 6.90726 22.4967C8.23185 24.8962 10.4516 24.2062 11.3165 23.7959C11.4556 22.8013 11.8488 22.1112 12.2843 21.701C8.90323 21.3155 5.49194 20.812 5.49194 14.8318C5.49194 13.1223 5.95161 12.2645 6.91935 11.1704C6.7621 10.7663 6.24798 9.10033 7.07661 6.94946C8.34073 6.54539 11.25 8.62789 11.25 8.62789C12.4597 8.27977 13.7601 8.09949 15.0484 8.09949C16.3367 8.09949 17.6371 8.27977 18.8468 8.62789C18.8468 8.62789 21.756 6.53918 23.0202 6.94946C23.8488 9.10655 23.3347 10.7663 23.1774 11.1704C24.1452 12.2707 24.7379 13.1286 24.7379 14.8318C24.7379 20.8307 21.1754 21.3093 17.7944 21.701C18.3508 22.1921 18.8226 23.1245 18.8226 24.5854C18.8226 26.6803 18.8044 29.2725 18.8044 29.7823C18.8044 30.1863 19.0827 30.6774 19.8508 30.5345C25.8992 28.4706 30 22.5713 30 15.6773C30 7.05514 23.1956 0.509277 14.8065 0.509277ZM5.87903 21.9496C5.8004 22.0118 5.81855 22.1548 5.92137 22.2729C6.01815 22.3723 6.15726 22.4158 6.23589 22.335C6.31452 22.2729 6.29637 22.1299 6.19355 22.0118C6.09677 21.9123 5.95766 21.8688 5.87903 21.9496ZM5.22581 21.4461C5.18347 21.5269 5.24395 21.6264 5.36492 21.6885C5.46169 21.7507 5.58266 21.732 5.625 21.645C5.66734 21.5642 5.60685 21.4647 5.48589 21.4026C5.36492 21.3653 5.26815 21.3839 5.22581 21.4461ZM7.18548 23.6591C7.08871 23.7399 7.125 23.9264 7.26411 24.0445C7.40323 24.1875 7.57863 24.2062 7.65726 24.1067C7.73589 24.0259 7.6996 23.8394 7.57863 23.7213C7.44556 23.5783 7.26411 23.5597 7.18548 23.6591ZM6.49597 22.7453C6.39919 22.8075 6.39919 22.9691 6.49597 23.1121C6.59274 23.2551 6.75605 23.3172 6.83468 23.2551C6.93145 23.1742 6.93145 23.0126 6.83468 22.8696C6.75 22.7267 6.59274 22.6645 6.49597 22.7453Z" fill="black"/>
</svg>
