<svg width="32" height="33" viewBox="0 0 32 33" fill="none" xmlns="http://www.w3.org/2000/svg">
<path d="M0 16.5093C0 25.3458 7.16344 32.5093 16 32.5093C24.8366 32.5093 32 25.3458 32 16.5093C32 7.67272 24.8366 0.509277 16 0.509277C7.16344 0.509277 0 7.67272 0 16.5093Z" fill="#2867B2"/>
<path d="M11.6 24.5093H8.2V13.8093H11.6V24.5093ZM9.9 12.3093C8.8 12.3093 8 11.5093 8 10.4093C8 9.30928 8.9 8.50928 9.9 8.50928C11 8.50928 11.8 9.30928 11.8 10.4093C11.8 11.5093 11 12.3093 9.9 12.3093ZM24 24.5093H20.6V18.7093C20.6 17.0093 19.9 16.5093 18.9 16.5093C17.9 16.5093 16.9 17.3093 16.9 18.8093V24.5093H13.5V13.8093H16.7V15.3093C17 14.6093 18.2 13.5093 19.9 13.5093C21.8 13.5093 23.8 14.6093 23.8 17.9093V24.5093H24Z" fill="white"/>
</svg>
